<?xml version="1.0" encoding="iso-8859-1"?>
<!-- Generator: Adobe Illustrator 19.0.0, SVG Export Plug-In . SVG Version: 6.00 Build 0)  -->
<svg xmlns="http://www.w3.org/2000/svg" xmlns:xlink="http://www.w3.org/1999/xlink" version="1.1" id="Layer_1" x="0px" y="0px" viewBox="0 0 512.383 512.383" style="enable-background:new 0 0 512.383 512.383;" xml:space="preserve" width="512" height="512">
<g>
	<path d="M256.191,161.21c-52.373,0-94.981,42.608-94.981,94.981s42.608,94.981,94.981,94.981s94.981-42.608,94.981-94.981   S308.564,161.21,256.191,161.21z M256.191,321.173c-35.831,0-64.981-29.15-64.981-64.981s29.15-64.981,64.981-64.981   s64.981,29.15,64.981,64.981S292.022,321.173,256.191,321.173z"/>
	<path d="M271.988,253.048c-3.531-2.676-5.71-3.807-9.513-5.708l-5.145-2.668c-0.826-0.449-1.975-1.24-3.308-2.156l-0.073-0.05   c-1.884-1.483-2.206-2.553-2.206-4.358c0-2.021,1.459-4.203,3.816-4.203c2.424,0,4.345,0.363,6.978,5.054l2.246,4.001l13.971-9.051   l-1.756-3.457c-2.987-5.879-7.179-9.822-12.491-11.764v-9.351H248.16v9.303c-8.123,3.112-13.538,10.95-13.538,20.146   c0,6.296,2.117,11.239,6.525,15.156c3.704,3.19,6.61,4.97,12.369,7.587c8.666,4.128,10.31,6.44,10.31,9.264   c0,2.218-0.536,3.952-1.583,5.233c-0.934,1.096-2.449,2.354-5.908,2.354c-4.384,0-7.648-1.919-10.363-11.472l-1.543-5.429   l-14.779,8.945l0.614,2.979c2.039,9.89,8.888,17.599,17.897,20.49v9.153h16.348v-9.208c3.873-1.218,7.254-3.394,10.076-6.488   c4.222-4.574,6.363-10.209,6.363-16.749l-0.004-0.184C280.617,262.773,277.846,257.41,271.988,253.048z"/>
	<path d="M395.087,100.543H117.296H0v117.296v76.704v117.296h117.296h277.791h117.296V294.543v-76.704V100.543H395.087z    M482.383,130.543v55.731c-27.851-5.899-49.832-27.88-55.731-55.731H482.383z M30,130.543h55.731   C79.832,158.394,57.851,180.375,30,186.274V130.543z M30,381.839v-55.731c27.851,5.899,49.832,27.88,55.731,55.731H30z    M116.193,381.839c-6.556-44.423-41.771-79.637-86.193-86.193v-78.909c44.423-6.556,79.637-41.77,86.193-86.193h279.996   c6.556,44.423,41.771,79.637,86.193,86.193v78.909c-44.423,6.556-79.637,41.77-86.193,86.193H116.193z M482.383,381.839h-55.731   c5.899-27.851,27.881-49.832,55.731-55.731V381.839z"/>
</g>















</svg>
